<svg width="228" height="65" viewBox="0 0 228 65" fill="none" xmlns="http://www.w3.org/2000/svg">
<path d="M90.5054 13.5185V13.514C89.3671 9.52021 86.2492 7.3971 81.9346 7.37456C79.3116 7.35653 77.0621 8.28511 74.907 10.3902V0H68.0684C68.0594 8.72236 68.0774 17.4492 68.0054 26.1761C67.9919 27.6456 68.4149 28.2676 69.9265 28.1099C70.7949 28.0152 71.6857 28.0152 72.554 28.1099C74.1197 28.2767 75.2715 28.0107 74.9295 25.4954C76.9046 27.7943 78.9922 28.5697 81.3317 28.7274C86.7981 29.088 90.4379 25.856 91.0723 19.7166C91.1218 18.7835 91.1173 17.7062 91.0003 16.5116C90.8923 15.3892 90.7123 14.384 90.5054 13.5185ZM79.5726 23.2596C76.2928 23.2236 74.925 21.6954 74.9205 18.0578C74.916 14.4742 76.3647 12.7928 79.5231 12.7162C82.749 12.6395 84.3551 14.4606 84.3056 18.1344C84.2516 21.7811 82.8524 23.2957 79.5726 23.2596Z" fill="#8FFA09"/>
<path d="M0.240108 10.728C1.42337 0.793127 14.9431 -2.59665 23.4329 2.84412C26.4383 4.7689 27.3831 7.79806 27.9635 11.0391C28.1479 12.0713 27.4911 12.1885 26.7172 12.1885C25.1426 12.1885 23.5634 12.1344 21.9887 12.2066C20.9224 12.2562 20.657 11.6656 20.495 10.8227C19.8111 7.26615 17.0037 6.40068 13.6924 6.54042C10.1291 6.68917 8.20349 8.46069 7.54663 11.855C7.26318 13.3109 7.13271 14.7759 7.31717 16.2725C8.01003 21.8034 11.2314 23.9761 16.6753 22.6328C18.6729 22.1415 20.0496 21.0056 20.3825 19.0447C20.6795 17.3273 21.5658 16.9216 23.0685 17.1335C23.154 17.147 23.2439 17.1335 23.3294 17.1335C28.7823 17.1019 29.2682 17.9268 26.7937 22.9889C25.9659 24.6838 24.8276 26.1623 23.0865 26.9106C17.3501 29.3853 11.5373 29.6783 5.89546 26.7303C2.40417 24.9047 0.708013 21.6952 0.136629 17.8682C0.0331496 16.6827 -0.0253386 15.3664 0.0106541 13.933C0.0421477 12.7835 0.123131 11.7107 0.240108 10.728Z" fill="#8FFA09"/>
<path d="M38.6129 0C38.1091 7.8118 38.5005 15.6326 38.4015 23.4489C38.343 28.1775 38.388 28.0603 33.6909 28.1504C31.5944 28.191 31.2794 27.3932 31.2929 25.563C31.3559 17.0435 31.2794 8.51951 31.2524 0C33.7044 0 36.1609 0 38.6129 0Z" fill="#8FFA09"/>
<path d="M57.1535 24.6705C54.76 27.871 52.155 29.0159 48.9832 28.7004C44.997 28.3037 42.545 25.7749 42.3695 21.5737C42.1985 17.5709 42.3515 13.5591 42.2795 9.55176C42.257 8.27608 42.7564 7.97407 43.9667 7.91096C49.2261 7.6405 49.2216 7.59993 49.2216 12.7793C49.2216 14.7852 49.1991 16.7866 49.2306 18.7925C49.2621 20.9562 49.7345 22.8404 52.4025 23.0703C54.859 23.2821 56.6856 21.8171 56.9241 19.0359C57.1625 16.2682 57.1625 13.4554 57.0005 10.6787C56.8746 8.58261 57.3875 7.78926 59.673 7.87941C63.9786 8.05521 63.9831 7.91547 63.9831 12.1527C63.9831 16.6829 63.9111 21.2176 64.0191 25.7478C64.0641 27.5194 63.6052 28.3848 61.7066 28.1054C61.1937 28.0287 60.6538 28.0558 60.1319 28.1008C58.1568 28.2721 56.4112 28.2 57.1535 24.6705Z" fill="#8FFA09"/>
<path d="M131.657 29.6701C131.662 30.1569 131.234 30.3868 130.771 30.3868C129.686 30.3913 128.598 30.3598 127.518 30.3462C126.717 32.253 125.309 32.6767 123.689 31.5543C122.857 30.9728 122.074 31.0179 121.233 30.9818C120.301 30.9413 119.289 30.7474 119.123 29.7783C118.772 27.7273 117.381 27.8445 115.861 27.84C111.807 27.8219 107.83 27.281 104.046 25.7304C101.662 24.7477 99.5921 23.3593 97.9904 21.2858C96.5867 19.4782 94.9265 17.9546 92.7759 16.999C91.4397 16.4085 90.7738 16.1876 90.5669 18.1981C90.6569 17.4002 90.7064 16.431 90.6254 15.3357C90.5264 14.0059 90.2699 12.8745 90 12C90.0315 12.1442 90.099 12.3516 90.1575 12.6085C90.5489 14.3395 91.2777 15.241 92.9829 15.7864C95.1785 16.4896 96.9151 17.9907 98.3638 19.8028C103.353 26.0549 110.462 26.4426 117.629 26.65C117.881 26.659 118.349 26.5778 118.358 26.4922C118.785 23.2602 122.159 24.1211 124.04 22.9446C124.89 22.4127 127.585 21.6194 127.513 24.0265C127.513 24.1076 127.518 24.1843 127.513 24.2609C128.598 24.2564 129.686 24.2338 130.771 24.2564C131.234 24.2654 131.653 24.5178 131.657 24.9911C131.662 25.478 131.234 25.7078 130.771 25.7124C129.682 25.7169 128.598 25.6853 127.513 25.6673V25.8115C127.513 26.8753 127.495 27.7588 127.513 28.9353C128.598 28.9308 129.686 28.9128 130.771 28.9308C131.234 28.9399 131.653 29.1968 131.657 29.6701Z" fill="#8FFA09"/>
<path d="M164.701 36.7578C164.697 36.7443 164.697 36.7443 164.679 36.7172C161.732 32.1284 157.624 29.9422 152.554 29.3336C150.732 29.1173 148.891 28.9911 147.06 28.8468C145.535 28.7296 143.911 28.3194 143.439 30.5778C143.295 31.2584 142.431 31.4838 141.693 31.5154C141.081 31.5424 140.429 31.4432 139.862 31.619C135.619 32.9353 135.624 32.9533 135.624 28.6124C135.624 27.5666 135.619 26.5164 135.619 25.4706C135.628 23.4421 136.816 22.3963 138.44 23.3655C139.718 24.1273 140.937 24.4293 142.323 24.569C142.701 24.6096 143.299 24.9477 143.353 25.2317C143.87 27.9363 146.039 27.5035 147.843 27.5666C151.91 27.7109 155.847 28.3735 159.532 30.1721C160.391 30.5913 161.165 31.024 161.966 31.6821C164.341 33.634 166.199 36.0546 168.885 37.4159C167.185 37.0147 165.979 36.8254 164.701 36.7578Z" fill="#8FFA09"/>
<path d="M151.09 37.9089C151.09 37.3229 151.112 36.5927 150.797 36.1735C149.893 34.9699 144.4 35.9977 143.612 37.4491C139.347 34.4245 133.75 34.5101 130.592 37.6475C127.321 40.8975 126.966 48.0827 129.886 51.9909C132.751 55.8359 138.042 56.2822 143.959 53.0953C143.927 55.259 144.859 57.6661 142.411 58.9823C140.373 60.0777 137.601 60.3301 136.333 58.4639C134.389 55.6061 131.897 56.9358 129.616 56.6158C128.329 56.4355 128.468 57.4317 128.666 58.1754C129.359 60.8305 131.132 62.5389 133.687 63.4359C136.814 64.5358 140.008 64.6214 143.261 64.0129C148.651 62.9986 150.991 60.4067 151.081 54.9119C151.171 49.2457 151.108 43.5751 151.09 37.9089ZM139.446 50.2509C136.301 50.2194 134.907 48.7679 134.884 45.5044C134.857 42.0244 136.189 40.609 139.505 40.5775C142.636 40.5504 144.031 41.9974 144.053 45.306C144.08 48.7769 142.672 50.287 139.446 50.2509Z" fill="#8FFA09"/>
<path d="M177.148 38.3459C177.148 37.7599 177.171 37.0297 176.856 36.6105C175.952 35.4069 170.458 36.4347 169.671 37.8861C165.406 34.8615 159.809 34.9471 156.65 38.0845C153.38 41.3345 153.024 48.5198 155.944 52.4279C158.81 56.273 164.101 56.7192 170.017 53.5323C169.986 55.696 170.917 58.1031 168.47 59.4193C166.432 60.5147 163.66 60.7671 162.391 58.9009C160.448 56.0431 157.955 57.3728 155.674 57.0528C154.387 56.8725 154.527 57.8687 154.725 58.6124C155.418 61.2675 157.19 62.9759 159.746 63.8729C162.873 64.9728 166.067 65.0584 169.32 64.4499C174.71 63.4357 177.049 60.8437 177.139 55.3489C177.229 49.6827 177.166 44.0121 177.148 38.3459ZM165.505 50.6879C162.36 50.6564 160.965 49.2049 160.943 45.9414C160.916 42.4614 162.247 41.046 165.563 41.0145C168.695 40.9874 170.089 42.4344 170.112 45.743C170.139 49.2139 168.731 50.724 165.505 50.6879Z" fill="#8FFA09"/>
<path d="M36.8218 40.1355C36.8218 42.8356 36.9523 45.5447 36.7903 48.2358C36.5474 52.3694 34.4778 55.2903 30.4421 56.6111C26.5054 57.9003 22.5237 57.9363 18.5825 56.6517C14.5558 55.3399 12.1893 52.3423 12.0768 48.1006C11.9374 42.7004 12.0588 37.2912 12.0004 31.891C11.9869 30.6649 12.3603 30.2908 13.6245 30.2277C19.1809 29.9527 19.1719 29.9031 19.1809 35.3303C19.1854 39.0762 19.1134 42.8266 19.2349 46.568C19.3609 50.3319 20.7961 51.6752 24.3548 51.7112C28.0126 51.7473 29.6953 50.2958 29.8167 46.5499C29.9652 41.9386 29.9517 37.3137 29.8212 32.6979C29.7672 30.8001 30.2037 30.1465 32.2417 30.2006C36.8713 30.3313 36.8758 30.2096 36.8758 34.8976C36.8758 36.6421 36.8758 38.382 36.8758 40.1265C36.8578 40.1355 36.8398 40.1355 36.8218 40.1355Z" fill="#8FFA09"/>
<path d="M117.936 53.8029C115.781 56.3588 113.774 57.4406 111.264 57.5308C106.828 57.6886 104.119 55.5429 103.453 51.1659C102.792 46.8296 103.305 42.4571 103.161 38.1027C103.125 37.0704 103.674 36.836 104.614 36.7324C110.008 36.1374 110.17 36.2546 110.17 41.6232C110.17 43.6291 110.125 45.6395 110.197 47.6409C110.305 50.6746 111.318 51.8511 113.689 51.8601C116.055 51.8691 117.643 50.3951 117.796 47.695C117.958 44.8236 117.99 41.9342 117.864 39.0628C117.783 37.2057 118.426 36.6873 120.248 36.7053C124.981 36.7459 124.981 36.6648 124.981 41.3978C124.981 45.8469 124.909 50.3005 125.017 54.745C125.058 56.485 124.487 57.1431 122.763 56.9268C121.985 56.8276 121.175 56.8141 120.401 56.9313C118.48 57.2243 117.558 56.5075 117.936 53.8029Z" fill="#8FFA09"/>
<path d="M47.4577 40.1986C49.4373 37.7825 51.1289 36.6781 53.293 36.2904C58.0125 35.443 61.4903 37.7284 62.1832 42.4389C62.8311 46.8474 62.3317 51.31 62.4441 55.7456C62.4621 56.4758 62.1607 56.8995 61.3823 56.904C61.2969 56.904 61.2069 56.8995 61.1214 56.913C55.8395 57.6207 55.511 57.3413 55.5065 52.1304C55.5065 50.0388 55.565 47.9473 55.457 45.8602C55.3446 43.7281 54.8137 41.8439 52.0557 41.8213C49.5992 41.8033 48.0381 43.0835 47.8086 45.8016C47.5881 48.398 47.7276 51.0215 47.6016 53.6315C47.5521 54.6953 48.245 56.3496 47.0168 56.7012C45.1271 57.2421 43.0261 57.1474 41.0645 56.6877C40.4751 56.5479 40.6371 55.6238 40.6371 55.0243C40.6326 49.534 40.664 44.0481 40.6146 38.5578C40.6011 37.2145 41.0465 36.615 42.4322 36.7412C43.215 36.8133 44.0159 36.8268 44.7942 36.7367C46.7468 36.5113 48.119 36.899 47.4577 40.1986Z" fill="#8FFA09"/>
<path d="M99.2918 42.624C99.2918 46.6313 99.1973 50.6386 99.3322 54.6415C99.3952 56.5121 98.7789 56.9855 96.9657 56.9584C92.3452 56.8908 92.3407 56.9764 92.3407 52.4597C92.3407 45.4052 92.4306 38.3462 92.2867 31.2962C92.2417 29.1596 92.948 28.6863 94.9456 28.7403C99.2828 28.8666 99.2873 28.7629 99.2873 32.9505C99.2963 36.178 99.2918 39.401 99.2918 42.624Z" fill="#8FFA09"/>
<path fill-rule="evenodd" clip-rule="evenodd" d="M209.425 56.6382C213.173 58.3105 216.758 57.8327 220.362 54.8261C220.353 56.7103 221.293 57.1115 222.751 56.9266C223.615 56.823 224.51 56.8275 225.374 56.9266C227.088 57.1205 227.642 56.4714 227.619 54.7359C227.557 49.5707 227.566 44.4031 227.576 39.2348C227.58 37.3399 227.583 35.4449 227.583 33.5498C227.583 31.1367 227.583 29.9499 226.99 29.3581C226.391 28.7615 225.19 28.7696 222.778 28.7356C220.848 28.7086 220.394 29.3937 220.484 31.1472C220.571 32.8371 220.552 34.5313 220.533 36.3603C220.524 37.1805 220.515 38.0278 220.515 38.914C216.659 35.8172 212.894 35.3078 209.051 37.2461C205.196 39.1934 204.404 42.8672 204.372 46.7934C204.372 47.1405 204.39 47.4921 204.408 47.8392C204.597 51.6121 205.677 54.9658 209.425 56.6382ZM215.706 41.5602C212.601 41.6053 211.373 43.0523 211.35 46.708C211.328 50.553 212.556 52.0902 215.701 52.1488C219.03 52.2164 220.502 50.5936 220.511 46.8432C220.52 43.0613 219.107 41.5106 215.706 41.5602Z" fill="#8FFA09"/>
<path fill-rule="evenodd" clip-rule="evenodd" d="M84.3007 37.0524C80.4585 35.3936 76.8008 35.8399 73.1025 39.162C73.4579 36.9262 72.4456 36.5521 70.9115 36.7279C70.3086 36.8045 69.6742 36.818 69.0758 36.7279C66.8578 36.3853 66.0614 37.0795 66.1289 39.5001C66.2647 44.3828 66.2402 49.2678 66.2156 54.1518C66.206 56.0627 66.1964 57.9734 66.1964 59.8838C66.1964 62.5458 66.1953 63.8689 66.8551 64.4914C67.5205 65.1191 68.8578 65.0344 71.5458 64.8919C72.8596 64.8242 73.1565 64.3554 73.1295 63.1789C73.0882 61.2355 73.0963 59.2898 73.1046 57.2956C73.108 56.4684 73.1115 55.6328 73.1115 54.7856C77.0347 57.4001 79.2888 58.0086 82.2806 57.346C87.1577 56.2687 89.6726 52.2659 89.3667 45.8109C89.1912 42.074 88.071 38.6842 84.3007 37.0524ZM77.696 41.5556C74.5286 41.6322 73.0979 43.3046 73.1114 46.9152C73.1249 50.4222 74.6726 52.1396 77.8445 52.1576C81.0163 52.1711 82.483 50.5123 82.501 46.9017C82.519 43.1288 81.0343 41.4744 77.696 41.5556Z" fill="#8FFA09"/>
<path fill-rule="evenodd" clip-rule="evenodd" d="M197.889 56.1243C200.049 55.1371 201.457 53.4332 201.83 50.7737C201.442 50.8362 198.3 50.9226 197.127 50.9548C196.861 50.9622 196.696 50.9667 196.688 50.9675C196.676 50.9675 196.639 51.0355 196.577 51.1481C196.322 51.6106 195.653 52.8256 194.672 53.1628C192.432 53.9381 188.036 52.7841 187.249 50.3049C186.884 49.1554 186.952 48.5694 188.446 48.601C190.678 48.6496 192.913 48.6431 195.147 48.6365C196.851 48.6315 198.556 48.6266 200.26 48.6461C201.416 48.6596 201.952 48.4072 202.037 47.0909C202.348 42.2767 199.86 38.1657 195.64 36.7954C190.133 35.0013 183.987 36.7774 181.584 40.8568C178.453 46.1714 180.194 53.7848 185.22 56.1964C189.404 58.2069 193.709 58.0401 197.889 56.1243ZM190.665 44.5375C190.852 44.5295 191.04 44.5214 191.226 44.5214C191.432 44.5214 191.638 44.5258 191.844 44.5302C192.333 44.5405 192.822 44.5509 193.309 44.5034C193.498 44.4862 193.712 44.513 193.927 44.5399C194.443 44.6047 194.965 44.6702 195.172 44.1293C195.491 43.2908 194.965 42.4704 194.335 41.8258C193.057 40.5231 190.065 40.3338 188.536 41.4742C187.739 42.0647 187.051 42.9077 187.235 43.8633C187.401 44.7176 188.022 44.6269 188.639 44.5368C188.911 44.4971 189.182 44.4575 189.413 44.4989C189.818 44.5739 190.241 44.5557 190.665 44.5375Z" fill="#8FFA09"/>
</svg>
